<svg width="377" height="148" viewBox="0 0 377 148" fill="none" xmlns="http://www.w3.org/2000/svg">
<path d="M25.5172 147.979C21.6709 147.979 17.7914 147.647 13.8788 146.984C9.96621 146.387 6.68359 145.26 4.03098 143.602C1.37836 141.944 0.0520525 139.59 0.0520525 136.54C0.0520525 136.274 0.0520525 136.042 0.0520525 135.843C0.118368 135.578 0.184683 135.28 0.250999 134.948C0.980468 133.489 1.84257 132.262 2.8373 131.267C3.89835 130.273 5.68886 129.51 8.20885 128.98C10.7951 128.449 14.7409 128.184 20.0461 128.184C24.1577 120.558 27.9377 113.495 31.3861 106.996C34.8345 100.431 37.9181 94.3961 40.6371 88.8919C43.356 83.3877 45.8097 78.3809 47.9981 73.8715C50.2528 69.362 52.3086 65.3499 54.1654 61.8352C57.8791 54.6732 60.9627 49.4342 63.4164 46.1185C65.9364 42.7364 68.3569 41.0453 70.678 41.0453C72.8664 41.0453 74.7895 41.6753 76.4474 42.9353C78.1053 44.1953 78.9342 45.7869 78.9342 47.71C78.4037 48.3732 78.1053 49.0695 78.039 49.799C77.9727 50.4621 77.9395 51.2248 77.9395 52.0869C89.611 47.3785 98.4641 42.438 104.499 37.2654C110.6 32.0264 113.65 27.4838 113.65 23.6375C113.65 21.9797 112.158 20.3549 109.174 18.7634C106.19 17.1718 102.244 16.376 97.3367 16.376C90.0421 16.376 83.2779 17.2713 77.0442 19.0618C70.8106 20.786 65.1406 22.9081 60.0343 25.4281C54.928 27.948 50.4186 30.6007 46.506 33.3859C42.5934 36.1048 39.3108 38.4922 36.6582 40.548C33.4087 43.0016 30.7892 45.3227 28.7998 47.5111C26.8103 49.6995 23.9588 50.7937 20.2451 50.7937C14.343 50.7937 11.392 48.2737 11.392 43.2337C11.392 38.9896 13.8457 34.3806 18.753 29.407C23.6603 24.367 30.1261 19.6918 38.1503 15.3813C46.1081 11.1371 55.0938 7.62237 65.1075 4.83713C75.1874 1.98557 85.201 0.559784 95.1483 0.559784C108.876 0.559784 118.956 2.64872 125.388 6.82659C131.821 11.0045 135.037 16.3429 135.037 22.8418C135.037 29.2744 130.959 36.0385 122.802 43.1343C118.823 46.5827 113.982 49.8984 108.279 53.0816C102.642 56.1984 96.2757 59.05 89.18 61.6363C96.2094 63.9573 101.946 66.411 106.389 68.9973C110.832 71.5173 114.28 74.1367 116.734 76.8557C119.254 79.6409 120.912 82.5256 121.708 85.5098C122.57 88.4277 123.001 91.445 123.001 94.5619C123.001 101.193 120.381 107.725 115.142 114.158C109.904 120.524 102.476 126.327 92.8605 131.566C83.311 136.805 72.6674 140.85 60.9296 143.702C49.1918 146.553 37.3876 147.979 25.5172 147.979ZM43.9197 127.985C51.6123 127.322 58.7743 125.995 65.4059 124.006C72.1037 121.95 77.9395 119.43 82.9131 116.446C87.8205 113.462 91.6668 110.113 94.452 106.399C97.3036 102.686 98.7294 98.7729 98.7294 94.6613C98.7294 90.9477 96.8725 86.9024 93.1589 82.5256C89.4452 78.1488 82.5484 74.3357 72.4685 71.0862C67.4285 82.4925 62.6206 92.5061 58.0449 101.127C53.5354 109.748 48.827 118.701 43.9197 127.985ZM161.501 65.0184C157.389 65.0184 154.505 64.3884 152.847 63.1284C151.189 61.8021 150.26 60.0779 150.061 57.9558C150.061 54.8389 151.189 51.7884 153.444 48.8042C155.765 45.7537 159.18 44.2285 163.689 44.2285C167.536 44.2285 170.221 44.9911 171.747 46.5164C173.272 47.9753 174.034 49.8321 174.034 52.0869C174.034 54.6068 173.04 57.3921 171.05 60.4426C169.127 63.4931 165.944 65.0184 161.501 65.0184ZM137.13 146.487C131.758 146.487 127.514 145.127 124.397 142.408C121.347 139.623 119.822 135.313 119.822 129.477C119.822 125.432 120.551 121.42 122.01 117.441C123.535 113.395 125.193 109.615 126.984 106.101C128.841 102.52 130.299 99.4029 131.361 96.7503C131.692 95.8882 132.256 94.5619 133.052 92.7714C133.914 90.9808 134.809 89.1572 135.737 87.3003L139.119 80.3372C140.247 78.4804 141.54 77.1541 142.999 76.3583C144.458 75.5625 145.95 75.1646 147.475 75.1646C149.995 75.1646 152.15 75.9936 153.941 77.6514C155.798 79.243 156.726 81.2988 156.726 83.8188C156.66 84.4156 156.56 85.0124 156.428 85.6093C156.361 86.2061 156.162 86.803 155.831 87.3998C154.372 90.0524 153.112 92.5392 152.051 94.8603C150.99 97.115 149.896 99.4029 148.768 101.724C147.84 103.647 146.679 106.001 145.287 108.787C143.894 111.572 142.667 114.39 141.606 117.242C140.545 120.027 140.015 122.514 140.015 124.702C140.015 126.493 140.446 127.686 141.308 128.283C142.236 128.814 143.529 129.079 145.187 129.079C147.84 129.079 150.758 128.25 153.941 126.592C157.19 124.934 160.274 122.879 163.192 120.425C166.242 117.971 169.061 115.484 171.647 112.964C174.233 110.378 176.157 108.289 177.417 106.698C178.677 105.438 180.003 104.808 181.396 104.808C182.589 104.808 183.551 105.338 184.28 106.399C185.076 107.46 185.474 108.82 185.474 110.478C185.474 112.003 185.076 113.628 184.28 115.352C183.551 117.076 182.324 118.701 180.6 120.226C176.223 124.669 171.647 128.913 166.872 132.958C162.098 136.937 157.19 140.187 152.15 142.707C147.177 145.227 142.17 146.487 137.13 146.487ZM178.614 146.487C173.176 146.487 169.43 145.127 167.374 142.408C165.384 139.689 164.39 136.374 164.39 132.461C164.39 129.212 164.854 125.896 165.782 122.514C166.777 119.065 167.937 115.915 169.264 113.064C171.585 107.891 173.939 102.752 176.326 97.6455C178.714 92.5392 180.902 87.864 182.892 83.6198L213.032 19.4597C214.557 16.1439 216.845 13.9887 219.896 12.9939C222.946 11.9992 225.731 12.0987 228.251 13.2923C230.838 14.4197 232.131 16.5086 232.131 19.5591C232.131 20.7528 231.832 22.0128 231.236 23.3391C230.705 24.6654 230.009 26.0912 229.147 27.6165C226.759 32.1259 223.709 38.0611 219.995 45.4222C216.348 52.7832 212.302 61.0726 207.859 70.2904C203.018 80.4367 198.94 88.9582 195.624 95.855C192.375 102.686 189.324 109.151 186.473 115.252C185.743 116.778 185.014 118.568 184.284 120.624C183.621 122.613 183.289 124.404 183.289 125.995C183.289 128.184 184.251 129.278 186.174 129.278C188.296 129.278 191.115 128.416 194.629 126.692C198.21 124.901 201.924 122.68 205.77 120.027C209.683 117.441 213.463 114.755 217.11 111.97C220.758 109.118 224.14 106.366 227.257 103.713C228.318 102.851 229.578 102.42 231.037 102.42C234.087 102.42 235.612 104.111 235.612 107.493C235.612 108.886 235.148 110.444 234.22 112.169C233.291 113.893 231.667 115.584 229.346 117.242C225.101 121.154 220.824 124.868 216.513 128.383C212.269 131.831 207.992 134.915 203.681 137.634C199.437 140.286 195.193 142.408 190.949 144C186.705 145.658 182.593 146.487 178.614 146.487ZM227.062 146.487C221.624 146.487 217.877 145.127 215.821 142.408C213.832 139.689 212.837 136.374 212.837 132.461C212.837 129.212 213.301 125.896 214.23 122.514C215.224 119.065 216.385 115.915 217.711 113.064C220.032 107.891 222.386 102.752 224.774 97.6455C227.161 92.5392 229.349 87.864 231.339 83.6198L261.479 19.4597C263.005 16.1439 265.292 13.9887 268.343 12.9939C271.393 11.9992 274.179 12.0987 276.699 13.2923C279.285 14.4197 280.578 16.5086 280.578 19.5591C280.578 20.7528 280.28 22.0128 279.683 23.3391C279.152 24.6654 278.456 26.0912 277.594 27.6165C275.207 32.1259 272.156 38.0611 268.442 45.4222C264.795 52.7832 260.75 61.0726 256.307 70.2904C251.466 80.4367 247.387 88.9582 244.072 95.855C240.822 102.686 237.772 109.151 234.92 115.252C234.191 116.778 233.461 118.568 232.732 120.624C232.068 122.613 231.737 124.404 231.737 125.995C231.737 128.184 232.698 129.278 234.622 129.278C236.744 129.278 239.562 128.416 243.077 126.692C246.658 124.901 250.371 122.68 254.218 120.027C258.13 117.441 261.91 114.755 265.558 111.97C269.205 109.118 272.587 106.366 275.704 103.713C276.765 102.851 278.025 102.42 279.484 102.42C282.534 102.42 284.06 104.111 284.06 107.493C284.06 108.886 283.595 110.444 282.667 112.169C281.739 113.893 280.114 115.584 277.793 117.242C273.549 121.154 269.271 124.868 264.961 128.383C260.717 131.831 256.439 134.915 252.129 137.634C247.885 140.286 243.64 142.408 239.396 144C235.152 145.658 231.041 146.487 227.062 146.487ZM282.174 146.487C279.919 146.487 277.233 145.857 274.116 144.597C271 143.337 268.247 141.248 265.86 138.33C263.539 135.412 262.379 131.5 262.379 126.592C262.379 122.481 263.307 117.341 265.164 111.174C267.021 105.007 269.939 98.9387 273.917 92.9703C277.896 86.8693 282.969 81.7962 289.137 77.7509C295.37 73.7057 302.566 71.6831 310.722 71.6831C313.64 71.6831 316.193 72.0478 318.382 72.7773C320.57 73.5067 322.427 74.3025 323.952 75.1646C324.814 75.6951 325.61 76.2588 326.34 76.8557C327.136 77.3862 327.865 77.983 328.528 78.6462L332.01 76.9551C333.004 76.4909 334.032 76.093 335.093 75.7615C336.221 75.3636 337.182 75.1646 337.978 75.1646C340.498 75.1646 342.554 75.8609 344.145 77.2535C345.737 78.6462 346.533 80.1714 346.533 81.8293C346.533 82.3598 346.5 82.7246 346.433 82.9235C345.969 84.7803 345.107 87.3335 343.847 90.5829C342.653 93.8324 341.36 97.4466 339.968 101.426C338.575 105.272 337.381 108.985 336.387 112.566C335.458 116.148 334.994 119.099 334.994 121.42C334.994 123.409 335.325 125.067 335.989 126.393C336.652 127.653 337.779 128.283 339.371 128.283C341.294 128.283 343.88 127.189 347.13 125.001C350.379 122.746 353.728 120.093 357.176 117.043C359.033 115.385 360.956 113.628 362.946 111.771C364.935 109.848 366.958 107.825 369.014 105.703C370.075 104.841 371.103 104.41 372.097 104.41C373.424 104.41 374.518 105.073 375.38 106.399C376.308 107.659 376.773 109.085 376.773 110.677C376.773 112.533 376.143 114.092 374.883 115.352C372.23 117.805 369.511 120.425 366.726 123.21C363.941 125.995 360.094 129.411 355.187 133.456C350.81 137.037 346.301 140.121 341.659 142.707C337.017 145.227 332.839 146.487 329.125 146.487C324.483 146.487 321.101 144.696 318.979 141.115C316.857 137.468 315.796 133.588 315.796 129.477C315.796 126.493 316.227 123.84 317.089 121.519C314.37 125.166 311.154 128.946 307.44 132.859C303.726 136.705 299.714 139.955 295.404 142.607C291.093 145.194 286.683 146.487 282.174 146.487ZM290.132 128.98C292.254 128.98 294.906 127.62 298.089 124.901C301.339 122.182 304.456 118.999 307.44 115.352C310.756 111.373 313.375 107.759 315.298 104.509C317.221 101.26 318.183 99.0713 318.183 97.944C318.183 95.424 316.724 93.4345 313.806 91.9756C310.888 90.4503 308.269 89.6877 305.948 89.6877C301.836 89.6877 297.924 91.014 294.21 93.6666C290.563 96.3192 287.578 99.7345 285.257 103.912C282.936 108.024 281.776 112.301 281.776 116.744C281.776 119.331 282.24 122.016 283.168 124.802C284.163 127.587 286.484 128.98 290.132 128.98Z" fill="white"/>
</svg>
