<svg width="377" height="148" viewBox="0 0 377 148" fill="none" xmlns="http://www.w3.org/2000/svg">
<path d="M77.9395 52.0869C83.8416 49.6995 89.0142 47.2458 93.4573 44.7258C97.9004 42.2059 101.614 39.719 104.598 37.2654C107.582 34.7454 109.837 32.3249 111.362 30.0038C112.888 27.6828 113.65 25.5607 113.65 23.6375C113.65 22.9744 113.319 22.2118 112.656 21.3497C111.992 20.4876 110.965 19.6918 109.572 18.9623C108.246 18.2328 106.555 17.636 104.499 17.1718C102.443 16.6413 100.056 16.376 97.3367 16.376C90.0421 16.376 83.2779 17.2713 77.0442 19.0618C70.8106 20.786 65.1406 22.9081 60.0343 25.4281C54.928 27.948 50.4186 30.6007 46.506 33.3859C42.5934 36.1048 39.3108 38.4922 36.6582 40.548C35.0003 41.808 33.5413 43.068 32.2813 44.3279C31.0877 45.5216 29.894 46.6158 28.7003 47.6106C27.5729 48.539 26.3461 49.3016 25.0198 49.8984C23.6935 50.4953 22.1019 50.7937 20.2451 50.7937C17.4598 50.7937 15.2714 50.1305 13.6799 48.8042C12.1546 47.4779 11.392 45.6211 11.392 43.2337C11.392 40.3822 12.5193 37.3648 14.7741 34.1817C17.0288 30.9322 20.1456 27.7159 24.1245 24.5328C28.1035 21.3497 32.7787 18.3323 38.1503 15.4807C43.5218 12.5629 49.2912 10.0097 55.4586 7.82132C61.6922 5.63291 68.158 3.87555 74.8558 2.54925C81.62 1.22294 88.3842 0.559784 95.1483 0.559784C102.111 0.559784 108.113 1.12347 113.153 2.25083C118.193 3.37819 122.304 4.9366 125.488 6.92606C128.737 8.91552 131.124 11.2697 132.65 13.9887C134.241 16.7076 135.037 19.6586 135.037 22.8418C135.037 26.0249 133.976 29.3407 131.854 32.7891C129.732 36.2375 126.681 39.6859 122.702 43.1343C118.79 46.5827 113.982 49.8984 108.279 53.0816C102.642 56.1984 96.2757 59.05 89.18 61.6363C96.2094 63.9573 101.913 66.411 106.289 68.9973C110.732 71.5173 114.181 74.1699 116.635 76.9551C119.155 79.6741 120.846 82.5256 121.708 85.5098C122.57 88.4277 123.001 91.445 123.001 94.5619C123.001 99.1376 121.741 103.647 119.221 108.09C116.701 112.533 113.186 116.744 108.677 120.723C104.234 124.636 98.9283 128.283 92.761 131.665C86.66 134.981 79.9953 137.866 72.7669 140.319C65.5385 142.707 57.9122 144.564 49.8881 145.89C41.8639 147.283 33.7403 147.979 25.5172 147.979C22.5993 147.979 19.6483 147.813 16.6641 147.482C13.6799 147.15 10.9278 146.553 8.40779 145.691C5.95412 144.829 3.9315 143.668 2.33993 142.209C0.81468 140.751 0.0520525 138.861 0.0520525 136.54C0.0520525 136.274 0.0520525 136.042 0.0520525 135.843C0.118368 135.578 0.184683 135.28 0.250999 134.948C0.51626 134.417 0.81468 133.787 1.14626 133.058C1.47783 132.262 2.24046 131.5 3.43414 130.77C4.62782 130.041 6.48465 129.444 9.00463 128.98C11.5909 128.449 15.2714 128.184 20.0461 128.184C28.3356 112.998 35.1661 99.9334 40.5376 88.9914C45.9755 77.983 50.5181 68.931 54.1654 61.8352C57.8128 54.7395 60.8633 49.5006 63.3169 46.1185C65.8369 42.7364 68.2906 41.0453 70.678 41.0453C71.739 41.0453 72.7669 41.2111 73.7616 41.5427C74.7564 41.8743 75.6185 42.3385 76.3479 42.9353C77.1437 43.4658 77.7737 44.1622 78.2379 45.0243C78.7021 45.82 78.9342 46.7153 78.9342 47.71C78.4037 48.3732 78.1053 49.0695 78.039 49.799C77.9727 50.4621 77.9395 51.2248 77.9395 52.0869ZM72.4685 71.0862C69.4843 77.8504 66.6659 83.9182 64.0133 89.2898C61.427 94.6613 58.9733 99.6018 56.6522 104.111C54.3312 108.554 52.1096 112.732 49.9876 116.645C47.9318 120.491 45.9092 124.271 43.9197 127.985C51.6123 127.322 58.7743 125.995 65.4059 124.006C72.1037 121.95 77.9063 119.43 82.8137 116.446C87.7873 113.462 91.6668 110.113 94.452 106.399C97.3036 102.686 98.7294 98.7729 98.7294 94.6613C98.7294 92.8045 98.2983 90.8482 97.4362 88.7924C96.6404 86.7366 95.2478 84.6809 93.2584 82.6251C91.2689 80.5693 88.5831 78.5467 85.201 76.5572C81.8189 74.5678 77.5748 72.7441 72.4685 71.0862ZM150.061 57.9558C150.061 56.4305 150.327 54.8721 150.857 53.2805C151.454 51.6226 152.316 50.1305 153.444 48.8042C154.571 47.4779 155.964 46.3837 157.621 45.5216C159.346 44.6595 161.368 44.2285 163.689 44.2285C167.536 44.2285 170.221 44.9911 171.747 46.5164C173.272 47.9753 174.034 49.8321 174.034 52.0869C174.034 53.3468 173.769 54.7395 173.239 56.2647C172.775 57.79 172.045 59.2158 171.05 60.5421C170.056 61.8021 168.762 62.8631 167.171 63.7252C165.579 64.5873 163.689 65.0184 161.501 65.0184C157.389 65.0184 154.505 64.3884 152.847 63.1284C151.189 61.8021 150.26 60.0779 150.061 57.9558ZM139.119 80.3372C140.247 78.4804 141.54 77.1541 142.999 76.3583C144.458 75.5625 145.95 75.1646 147.475 75.1646C149.995 75.1646 152.15 75.9936 153.941 77.6514C155.798 79.243 156.726 81.2988 156.726 83.8188C156.66 84.4156 156.56 85.0124 156.428 85.6093C156.361 86.2061 156.162 86.803 155.831 87.3998C154.903 89.124 154.14 90.5829 153.543 91.7766C152.946 92.9703 152.383 94.0977 151.852 95.1587C151.388 96.1534 150.924 97.1482 150.459 98.1429C149.995 99.1376 149.431 100.331 148.768 101.724C147.973 103.382 147.077 105.205 146.083 107.195C145.088 109.118 144.126 111.108 143.198 113.163C142.336 115.219 141.573 117.242 140.91 119.231C140.313 121.221 140.015 123.044 140.015 124.702C140.015 126.493 140.446 127.686 141.308 128.283C142.236 128.814 143.529 129.079 145.187 129.079C147.044 129.079 148.967 128.681 150.957 127.885C153.013 127.09 155.068 126.062 157.124 124.802C159.18 123.542 161.202 122.116 163.192 120.524C165.181 118.866 167.038 117.209 168.762 115.551C170.553 113.893 172.178 112.301 173.637 110.776C175.162 109.251 176.422 107.891 177.417 106.698C178.743 105.438 180.069 104.808 181.396 104.808C182.589 104.808 183.551 105.338 184.28 106.399C185.076 107.46 185.474 108.82 185.474 110.478C185.474 112.003 185.076 113.628 184.28 115.352C183.551 117.076 182.324 118.701 180.6 120.226C177.218 123.674 173.769 126.99 170.255 130.173C166.74 133.29 163.126 136.075 159.412 138.529C155.765 140.916 152.084 142.839 148.37 144.298C144.657 145.757 140.91 146.487 137.13 146.487C131.758 146.487 127.514 145.127 124.397 142.408C121.347 139.623 119.822 135.313 119.822 129.477C119.822 126.426 120.253 123.442 121.115 120.524C121.977 117.606 123.005 114.788 124.198 112.069C125.392 109.284 126.652 106.631 127.978 104.111C129.305 101.525 130.432 99.0713 131.361 96.7503C131.692 95.8882 132.256 94.5619 133.052 92.7714C133.914 90.9808 134.809 89.1572 135.737 87.3003C136.798 85.1119 137.926 82.7909 139.119 80.3372ZM186.473 115.252C185.743 116.778 185.014 118.568 184.284 120.624C183.621 122.613 183.289 124.404 183.289 125.995C183.289 126.99 183.488 127.786 183.886 128.383C184.284 128.98 185.047 129.278 186.174 129.278C187.567 129.278 189.291 128.88 191.347 128.084C193.469 127.222 195.724 126.128 198.111 124.802C200.565 123.409 203.085 121.851 205.671 120.126C208.324 118.336 210.943 116.512 213.529 114.655C216.116 112.732 218.569 110.842 220.89 108.985C223.278 107.062 225.4 105.305 227.257 103.713C227.787 103.249 228.417 102.918 229.147 102.719C229.876 102.52 230.506 102.42 231.037 102.42C232.363 102.42 233.457 102.884 234.319 103.813C235.181 104.741 235.612 105.968 235.612 107.493C235.612 108.886 235.148 110.444 234.22 112.169C233.291 113.893 231.667 115.584 229.346 117.242C225.101 121.154 220.824 124.868 216.513 128.383C212.203 131.897 207.892 135.014 203.582 137.733C199.338 140.386 195.094 142.508 190.849 144.099C186.672 145.691 182.593 146.487 178.614 146.487C175.895 146.487 173.607 146.122 171.751 145.393C169.96 144.663 168.501 143.668 167.374 142.408C166.313 141.148 165.55 139.656 165.086 137.932C164.622 136.208 164.39 134.384 164.39 132.461C164.39 129.212 164.854 125.896 165.782 122.514C166.777 119.065 167.937 115.915 169.264 113.064C171.585 107.891 173.939 102.752 176.326 97.6455C178.714 92.5392 180.902 87.864 182.892 83.6198L213.032 19.4597C214.226 16.8734 215.817 15.0497 217.807 13.9887C219.862 12.9276 221.918 12.3971 223.974 12.3971C226.03 12.3971 227.887 12.9608 229.544 14.0881C231.269 15.2155 232.131 17.0392 232.131 19.5591C232.131 20.7528 231.832 22.0128 231.236 23.3391C230.705 24.6654 230.009 26.0912 229.147 27.6165C227.489 30.7333 225.499 34.5464 223.178 39.0559C220.923 43.5653 218.47 48.4727 215.817 53.7779C213.231 59.0831 210.545 64.6205 207.76 70.3899C205.041 76.093 202.355 81.6635 199.703 87.1014C197.116 92.5392 194.663 97.7118 192.342 102.619C190.087 107.46 188.13 111.671 186.473 115.252ZM234.92 115.252C234.191 116.778 233.461 118.568 232.732 120.624C232.068 122.613 231.737 124.404 231.737 125.995C231.737 126.99 231.936 127.786 232.334 128.383C232.732 128.98 233.494 129.278 234.622 129.278C236.014 129.278 237.738 128.88 239.794 128.084C241.916 127.222 244.171 126.128 246.558 124.802C249.012 123.409 251.532 121.851 254.118 120.126C256.771 118.336 259.39 116.512 261.977 114.655C264.563 112.732 267.017 110.842 269.338 108.985C271.725 107.062 273.847 105.305 275.704 103.713C276.234 103.249 276.864 102.918 277.594 102.719C278.323 102.52 278.953 102.42 279.484 102.42C280.81 102.42 281.904 102.884 282.767 103.813C283.629 104.741 284.06 105.968 284.06 107.493C284.06 108.886 283.595 110.444 282.667 112.169C281.739 113.893 280.114 115.584 277.793 117.242C273.549 121.154 269.271 124.868 264.961 128.383C260.65 131.897 256.34 135.014 252.029 137.733C247.785 140.386 243.541 142.508 239.297 144.099C235.119 145.691 231.041 146.487 227.062 146.487C224.343 146.487 222.055 146.122 220.198 145.393C218.407 144.663 216.949 143.668 215.821 142.408C214.76 141.148 213.997 139.656 213.533 137.932C213.069 136.208 212.837 134.384 212.837 132.461C212.837 129.212 213.301 125.896 214.23 122.514C215.224 119.065 216.385 115.915 217.711 113.064C220.032 107.891 222.386 102.752 224.774 97.6455C227.161 92.5392 229.349 87.864 231.339 83.6198L261.479 19.4597C262.673 16.8734 264.265 15.0497 266.254 13.9887C268.31 12.9276 270.366 12.3971 272.421 12.3971C274.477 12.3971 276.334 12.9608 277.992 14.0881C279.716 15.2155 280.578 17.0392 280.578 19.5591C280.578 20.7528 280.28 22.0128 279.683 23.3391C279.152 24.6654 278.456 26.0912 277.594 27.6165C275.936 30.7333 273.947 34.5464 271.626 39.0559C269.371 43.5653 266.917 48.4727 264.265 53.7779C261.678 59.0831 258.992 64.6205 256.207 70.3899C253.488 76.093 250.803 81.6635 248.15 87.1014C245.564 92.5392 243.11 97.7118 240.789 102.619C238.534 107.46 236.578 111.671 234.92 115.252ZM305.948 89.6877C302.831 89.6877 299.814 90.4835 296.896 92.075C293.978 93.6666 291.392 95.7555 289.137 98.3418C286.882 100.928 285.092 103.846 283.765 107.095C282.439 110.279 281.776 113.495 281.776 116.744C281.776 118.071 281.842 119.463 281.975 120.922C282.174 122.315 282.572 123.608 283.168 124.802C283.765 125.995 284.594 126.99 285.655 127.786C286.783 128.582 288.275 128.98 290.132 128.98C291.59 128.98 293.282 128.35 295.205 127.09C297.194 125.763 299.217 124.105 301.273 122.116C303.395 120.06 305.45 117.839 307.44 115.451C309.429 112.998 311.22 110.61 312.811 108.289C314.403 105.968 315.696 103.879 316.691 102.022C317.686 100.166 318.183 98.8061 318.183 97.944C318.183 96.684 317.752 95.5566 316.89 94.5619C316.028 93.5008 314.967 92.6056 313.707 91.8761C312.447 91.1466 311.087 90.6161 309.628 90.2845C308.236 89.8866 307.009 89.6877 305.948 89.6877ZM374.883 115.352C373.689 116.479 372.097 118.038 370.108 120.027C368.118 122.016 365.831 124.172 363.244 126.493C360.724 128.814 358.005 131.168 355.087 133.555C352.236 135.876 349.285 137.998 346.234 139.922C343.25 141.845 340.299 143.403 337.381 144.597C334.463 145.857 331.711 146.487 329.125 146.487C326.804 146.487 324.814 145.989 323.157 144.995C321.499 144 320.106 142.707 318.979 141.115C317.918 139.524 317.122 137.733 316.591 135.744C316.061 133.688 315.796 131.599 315.796 129.477C315.796 128.084 315.895 126.725 316.094 125.399C316.293 124.006 316.625 122.713 317.089 121.519C315.033 124.304 312.679 127.189 310.026 130.173C307.44 133.091 304.621 135.777 301.571 138.231C298.587 140.618 295.437 142.574 292.121 144.099C288.872 145.691 285.556 146.487 282.174 146.487C280.449 146.487 278.427 146.122 276.106 145.393C273.851 144.729 271.696 143.602 269.64 142.011C267.584 140.419 265.86 138.363 264.467 135.843C263.075 133.323 262.379 130.24 262.379 126.592C262.379 123.873 262.776 120.624 263.572 116.844C264.434 113.064 265.694 109.151 267.352 105.106C269.076 100.994 271.232 96.9492 273.818 92.9703C276.471 88.9914 279.587 85.4435 283.168 82.3267C286.749 79.1435 290.828 76.5904 295.404 74.6672C299.979 72.6778 305.086 71.6831 310.722 71.6831C313.64 71.6831 316.193 72.0478 318.382 72.7773C320.57 73.5067 322.427 74.3025 323.952 75.1646C325.677 76.2257 327.202 77.3862 328.528 78.6462C329.656 78.0493 330.816 77.4857 332.01 76.9551C333.004 76.4909 334.032 76.093 335.093 75.7615C336.221 75.3636 337.182 75.1646 337.978 75.1646C340.498 75.1646 342.554 75.8609 344.145 77.2535C345.737 78.6462 346.533 80.1714 346.533 81.8293C346.533 82.2935 346.5 82.6583 346.433 82.9235C346.102 84.1835 345.571 85.7751 344.842 87.6982C344.179 89.6214 343.416 91.7766 342.554 94.164C341.692 96.485 340.797 98.9387 339.868 101.525C339.006 104.045 338.21 106.532 337.481 108.985C336.751 111.439 336.154 113.76 335.69 115.949C335.226 118.071 334.994 119.894 334.994 121.42C334.994 123.409 335.325 125.067 335.989 126.393C336.652 127.653 337.779 128.283 339.371 128.283C340.365 128.283 341.526 127.985 342.852 127.388C344.245 126.725 345.737 125.863 347.329 124.802C348.92 123.741 350.545 122.547 352.203 121.221C353.927 119.828 355.585 118.435 357.176 117.043C360.89 113.727 364.836 109.947 369.014 105.703C370.075 104.841 371.103 104.41 372.097 104.41C373.424 104.41 374.518 105.073 375.38 106.399C376.308 107.659 376.773 109.085 376.773 110.677C376.773 112.533 376.143 114.092 374.883 115.352Z" fill="black"/>
</svg>
